<svg id="Capa_1" enable-background="new 0 0 512 512" height="512" viewBox="0 0 512 512" width="512" xmlns="http://www.w3.org/2000/svg"><g><g id="Blue_Economy_1_"><g><path d="m255.781 30c70.972 0 137.582 33.977 179.804 90h-44.218v30h87.275v-90h-30v29.028c-47.997-55.56-118.176-89.028-192.861-89.028-21.563 0-43.008 2.695-63.75 8.027l7.5 29.063c18.252-4.702 37.207-7.09 56.25-7.09z" fill="#6cf"/><path d="m512 256c0-21.533-2.695-42.979-8.027-63.735l-29.063 7.471c4.717 18.31 7.09 37.25 7.09 56.264 0 70.968-33.979 137.587-90 179.795v-44.326h-30v87.319h90v-30h-28.943c55.495-47.99 88.943-118.138 88.943-192.788z" fill="#59abff"/><g fill="#6cf"><path d="m255.781 482c-70.959 0-137.584-33.975-179.81-90h44.282v-30h-87.421v90h30v-29.13c47.997 55.616 118.209 89.13 192.949 89.13 21.563 0 43.008-2.695 63.75-8.027l-7.5-29.063c-18.252 4.702-37.207 7.09-56.25 7.09z"/><path d="m30 256c0-70.975 33.979-137.606 90-179.821v44.293h30v-87.451h-90v30h29.165c-55.64 47.994-89.165 118.228-89.165 192.979 0 21.533 2.695 42.979 8.027 63.735l29.063-7.471c-4.717-18.31-7.09-37.25-7.09-56.264z"/></g></g></g><g fill="#59abff"><path d="m319.531 503.973-7.5-29.063c-18.252 4.702-37.207 7.09-56.25 7.09v30c21.563 0 43.008-2.695 63.75-8.027z"/><path d="m435.585 120h-44.218v30h87.275v-90h-30v29.028c-47.997-55.56-118.176-89.028-192.861-89.028v30c70.972 0 137.582 33.977 179.804 90z"/></g><circle cx="256" cy="256" fill="#ffdf40" r="135"/><path d="m391 256c0-74.439-60.561-135-135-135v270c74.439 0 135-60.561 135-135z" fill="#ffbe40"/><path d="m256 241c24.813 0 45 20.187 45 45 0 19.525-12.503 36.178-29.92 42.393v32.607h-30v-32.553c-17.5-6.17-30.08-22.863-30.08-42.447h30c0 8.271 6.729 15 15 15s15-6.729 15-15-6.729-15-15-15c-24.813 0-45-20.187-45-45 0-19.584 12.58-36.277 30.08-42.447v-32.553h30v32.607c17.417 6.215 29.92 22.868 29.92 42.393h-30c0-8.271-6.729-15-15-15s-15 6.729-15 15 6.729 15 15 15z" fill="#ffbe40"/><g fill="#ff9f40"><path d="m271.08 328.393c17.417-6.215 29.92-22.868 29.92-42.393 0-24.813-20.187-45-45-45v30c8.271 0 15 6.729 15 15s-6.729 15-15 15v60h15.08z"/><path d="m271.08 183.607v-32.607h-15.08v60c8.271 0 15 6.729 15 15h30c0-19.525-12.503-36.178-29.92-42.393z"/></g></g></svg>